{"title":"The Adventures of Tintin 2011 DVDRip 480p x246 200MB-cRcWoRLd","uid":7399143,"size":212881878,"categoryP":"video","categoryS":"movies","magnet":"?xt=urn:btih:7bbad97ecbe36c4e87fa761a878e80bef42f35dd&amp;dn=The+Adventures+of+Tintin+2011+DVDRip+480p+x246+200MB-cRcWoRLd&amp;tr=udp%3A%2F%2Ftracker.openbittorrent.com%3A80&amp;tr=udp%3A%2F%2Fopen.demonii.com%3A1337&amp;tr=udp%3A%2F%2Ftracker.coppersurfer.tk%3A6969&amp;tr=udp%3A%2F%2Fexodus.desync.com%3A6969","seeders":0,"leechers":1,"uploader":"CRCWORLD","files":11,"time":1341014581,"description":"Intrepid reporter Tintin and Captain Haddock set off on a treasure hunt for a sunken ship commanded by Haddock's ancestor.\n &lt;a href=&quot;\nhttp://www.imdb.com/title/tt0983193/&quot; rel=&quot;nofollow&quot; target=&quot;_NEW&quot;&gt;\nhttp://www.imdb.com/title/tt0983193/&lt;/a&gt;\n\nGeneral\nComplete name                            : The Adventures of Tintin 2011 DVDRip  480p x246 200MB - cRcWoRLd.mp4\nFormat                                   : MPEG-4\nFormat profile                           : Base Media / Version 2\nCodec ID                                 : mp42\nFile size                                : 201 MiB\nDuration                                 : 1h 42mn\nOverall bit rate mode                    : Variable\nOverall bit rate                         : 274 Kbps\nEncoded date                             : UTC 2012-02-26 17:41:22\n\nVideo\nID                                       : 1\nFormat                                   : AVC\nFormat/Info                              : Advanced Video Codec\nFormat profile                           : &lt;a class=&quot;__cf_email__&quot; href=&quot;/cdn-cgi/l/email-protection&quot; data-cfemail=&quot;236e424a4d636f110d12&quot;&gt;[email&amp;#160;protected]&lt;/a&gt;&lt;script cf-hash='f9e31' type=&quot;text/javascript&quot;&gt;\n/* &lt;![CDATA[ */!function(){try{var t=&quot;currentScript&quot;in document?document.currentScript:function(){for(var t=document.getElementsByTagName(&quot;script&quot;),e=t.length;e--;)if(t[e].getAttribute(&quot;cf-hash&quot;))return t[e]}();if(t&amp;&amp;t.previousSibling){var e,r,n,i,c=t.previousSibling,a=c.getAttribute(&quot;data-cfemail&quot;);if(a){for(e=&quot;&quot;,r=parseInt(a.substr(0,2),16),n=2;a.length-n;n+=2)i=parseInt(a.substr(n,2),16)^r,e+=String.fromCharCode(i);e=document.createTextNode(e),c.parentNode.replaceChild(e,c)}}}catch(u){}}();/* ]]&gt; */&lt;/script&gt;\nFormat settings, CABAC                   : Yes\nFormat settings, ReFrames                : 4 frames\nCodec ID                                 : avc1\nCodec ID/Info                            : Advanced Video Coding\nDuration                                 : 1h 42mn\nBit rate mode                            : Variable\nBit rate                                 : 206 Kbps\nWidth                                    : 640 pixels\nHeight                                   : 272 pixels\nDisplay aspect ratio                     : 2.35:1\nFrame rate mode                          : Variable\nFrame rate                               : 25.000 fps\nMinimum frame rate                       : 25.000 fps\nMaximum frame rate                       : 62.543 fps\nColor space                              : YUV\nChroma subsampling                       : 4:2:0\nBit depth                                : 8 bits\nScan type                                : Progressive\nBits/(Pixel*Frame)                       : 0.047\nStream size                              : 151 MiB (75%)\nWriting library                          : x264 core 112\n\nAudio\nID                                       : 2\nFormat                                   : AAC\nFormat/Info                              : Advanced Audio Codec\nFormat profile                           : LC\nCodec ID                                 : 40\nDuration                                 : 1h 42mn\nBit rate mode                            : Variable\nBit rate                                 : 64.1 Kbps\nMaximum bit rate                         : 115 Kbps\nChannel(s)                               : 2 channels\nChannel positions                        : Front: L R\nSampling rate                            : 48.0 KHz\nCompression mode                         : Lossy\nStream size                              : 47.0 MiB (23%)\n\n\nSub Title- YES, English\nSample- YES, Try it 1st\n\nSCREEN &lt;a href=&quot;\nhttp://img580.imageshack.us/img580/2954/theadventuresoftintin20r.jpg&quot; rel=&quot;nofollow&quot; target=&quot;_NEW&quot;&gt;\nhttp://img580.imageshack.us/img580/2954/theadventuresoftintin20r.jpg&lt;/a&gt;\n\nAll My 200MB Rips Are Uploaded for Promotional Purposes Only! If You Like It - Buy It!\n\nBEST For SMARTPHONES/IPAD/IPHONE/ANDROID Devices. For PC Use in VLC &amp; MPC.\n\nThe Quality of this movies according to the rip size. plz leave your feed-back at my FB page... I am alwayes there.\n\nNEW Rips will Come SOOOOON.","torrent":{"xt":"urn:btih:7bbad97ecbe36c4e87fa761a878e80bef42f35dd","amp;dn":"The+Adventures+of+Tintin+2011+DVDRip+480p+x246+200MB-cRcWoRLd","amp;tr":["udp%3A%2F%2Ftracker.openbittorrent.com%3A80","udp%3A%2F%2Fopen.demonii.com%3A1337","udp%3A%2F%2Ftracker.coppersurfer.tk%3A6969","udp%3A%2F%2Fexodus.desync.com%3A6969"],"infoHash":"7bbad97ecbe36c4e87fa761a878e80bef42f35dd","infoHashBuffer":{"type":"Buffer","data":[123,186,217,126,203,227,108,78,135,250,118,26,135,142,128,190,244,47,53,221]},"announce":[],"urlList":[]}}